# xmcd CD database file
#
# Track frame offsets:
#	150
#	18592
#	32490
#	52273
#	64847
#
# Disc length: 1065 seconds
#
# Revision: 0
# Processed by: cddbd v1.4PL0 Copyright (c) Steve Scherf et al.
# Submitted via: Feurio! 1.66 - http://www.feurio.com
#
DISCID=40042705
DTITLE=Jawbone - PROMO-CD
DYEAR=2002
DGENRE=bluegrass
TTITLE0=Wild Horses
TTITLE1=Viva Las Vegas
TTITLE2=Coalminer
TTITLE3=Wild West
TTITLE4=Tom Ames' Prayer
EXTD=
EXTT0=
EXTT1=
EXTT2=
EXTT3=
EXTT4=
PLAYORDER=
